HIERARCHY
ROOT hip
{
  OFFSET 0 0 0
  CHANNELS 6 Xposition Yposition Zposition Zrotation Yrotation Xrotation
  JOINT abdomen
  {
    OFFSET 0 20.6881 -0.73152
    CHANNELS 3 Zrotation Xrotation Yrotation
    JOINT chest
    {
      OFFSET 0 11.7043 -0.48768
      CHANNELS 3 Zrotation Xrotation Yrotation
      JOINT neck
      {
        OFFSET 0 22.1894 -2.19456
        CHANNELS 3 Zrotation Xrotation Yrotation
        JOINT head
        {
          OFFSET -0.24384 7.07133 1.2192
          CHANNELS 3 Zrotation Xrotation Yrotation
          JOINT leftEye
          {
            OFFSET 4.14528 8.04674 8.04672
            CHANNELS 3 Zrotation Xrotation Yrotation
            End Site
            {
              OFFSET 1 0 0
            }
          }
          JOINT rightEye
          {
            OFFSET -3.6576 8.04674 8.04672
            CHANNELS 3 Zrotation Xrotation Yrotation
            End Site
            {
              OFFSET 1 0 0
            }
          }
        }
      }
      JOINT rCollar
      {
        OFFSET -2.68224 19.2634 -4.8768
        CHANNELS 3 Zrotation Xrotation Yrotation
        JOINT rShldr
        {
          OFFSET -8.77824 -1.95073 1.46304
          CHANNELS 3 Zrotation Xrotation Yrotation
          JOINT rForeArm
          {
            OFFSET -28.1742 -1.7115 0.48768
            CHANNELS 3 Zrotation Xrotation Yrotation
            JOINT rHand
            {
              OFFSET -22.5879 0.773209 7.07136
              CHANNELS 3 Zrotation Xrotation Yrotation
              JOINT rThumb1
              {
                OFFSET -1.2192 -0.487915 3.41376
                CHANNELS 3 Zrotation Xrotation Yrotation
                JOINT rThumb2
                {
                  OFFSET -3.37035 -0.52449 3.41376
                  CHANNELS 3 Zrotation Xrotation Yrotation
                  End Site
                  {
                    OFFSET -1.78271 -1.18214 1.43049
                  }
                }
              }
              JOINT rIndex1
              {
                OFFSET -7.75947 0.938293 5.60832
                CHANNELS 3 Zrotation Xrotation Yrotation
                JOINT rIndex2
                {
                  OFFSET -2.54057 -0.884171 1.56538
                  CHANNELS 3 Zrotation Xrotation Yrotation
                  End Site
                  {
                    OFFSET -1.62519 -0.234802 1.16502
                  }
                }
              }
              JOINT rMid1
              {
                OFFSET -8.24714 1.18213 3.41376
                CHANNELS 3 Zrotation Xrotation Yrotation
                JOINT rMid2
                {
                  OFFSET -3.10165 -0.590103 1.0647
                  CHANNELS 3 Zrotation Xrotation Yrotation
                  End Site
                  {
                    OFFSET -2.48547 -0.328903 0.83742
                  }
                }
              }
              JOINT rRing1
              {
                OFFSET -8.82822 0.546677 1.51678
                CHANNELS 3 Zrotation Xrotation Yrotation
                JOINT rRing2
                {
                  OFFSET -2.60934 -0.819778 -0.0198488
                  CHANNELS 3 Zrotation Xrotation Yrotation
                  End Site
                  {
                    OFFSET -2.33842 -0.294052 0.168128
                  }
                }
              }
              JOINT rPinky1
              {
                OFFSET -8.27202 -0.0477905 -0.4584
                CHANNELS 3 Zrotation Xrotation Yrotation
                JOINT rPinky2
                {
                  OFFSET -1.82734 -0.647385 -0.700984
                  CHANNELS 3 Zrotation Xrotation Yrotation
                  End Site
                  {
                    OFFSET -1.69225 -0.51767 -0.607171
                  }
                }
              }
            }
          }
        }
      }
      JOINT lCollar
      {
        OFFSET 2.68224 19.2634 -4.8768
        CHANNELS 3 Zrotation Xrotation Yrotation
        JOINT lShldr
        {
          OFFSET 8.77824 -1.95073 1.46304
          CHANNELS 3 Zrotation Xrotation Yrotation
          JOINT lForeArm
          {
            OFFSET 28.1742 -1.7115 0.48768
            CHANNELS 3 Zrotation Xrotation Yrotation
            JOINT lHand
            {
              OFFSET 22.5879 0.773209 7.07136
              CHANNELS 3 Zrotation Xrotation Yrotation
              JOINT lThumb1
              {
                OFFSET 1.2192 -0.487915 3.41376
                CHANNELS 3 Zrotation Xrotation Yrotation
                JOINT lThumb2
                {
                  OFFSET 3.37035 -0.52449 3.41376
                  CHANNELS 3 Zrotation Xrotation Yrotation
                  End Site
                  {
                    OFFSET 1.78271 -1.18214 1.43049
                  }
                }
              }
              JOINT lIndex1
              {
                OFFSET 7.75947 0.938293 5.60832
                CHANNELS 3 Zrotation Xrotation Yrotation
                JOINT lIndex2
                {
                  OFFSET 2.54057 -0.884171 1.56538
                  CHANNELS 3 Zrotation Xrotation Yrotation
                  End Site
                  {
                    OFFSET 1.62519 -0.234802 1.16502
                  }
                }
              }
              JOINT lMid1
              {
                OFFSET 8.24714 1.18213 3.41376
                CHANNELS 3 Zrotation Xrotation Yrotation
                JOINT lMid2
                {
                  OFFSET 3.10165 -0.590103 1.0647
                  CHANNELS 3 Zrotation Xrotation Yrotation
                  End Site
                  {
                    OFFSET 2.48547 -0.328903 0.83742
                  }
                }
              }
              JOINT lRing1
              {
                OFFSET 8.82822 0.546677 1.51678
                CHANNELS 3 Zrotation Xrotation Yrotation
                JOINT lRing2
                {
                  OFFSET 2.60934 -0.819778 -0.0198488
                  CHANNELS 3 Zrotation Xrotation Yrotation
                  End Site
                  {
                    OFFSET 2.33842 -0.294052 0.168128
                  }
                }
              }
              JOINT lPinky1
              {
                OFFSET 8.27202 -0.0477905 -0.4584
                CHANNELS 3 Zrotation Xrotation Yrotation
                JOINT lPinky2
                {
                  OFFSET 1.82734 -0.647385 -0.700984
                  CHANNELS 3 Zrotation Xrotation Yrotation
                  End Site
                  {
                    OFFSET 1.69225 -0.51767 -0.607171
                  }
                }
              }
            }
          }
        }
      }
    }
  }
  JOINT rButtock
  {
    OFFSET -8.77824 4.35084 1.2192
    CHANNELS 3 Zrotation Xrotation Yrotation
    JOINT rThigh
    {
      OFFSET 0 -1.70687 -2.19456
      CHANNELS 3 Zrotation Xrotation Yrotation
      JOINT rShin
      {
        OFFSET 0 -36.8199 0.73152
        CHANNELS 3 Zrotation Xrotation Yrotation
        JOINT rFoot
        {
          OFFSET 0.73152 -45.1104 -5.12064
          CHANNELS 3 Zrotation Xrotation Yrotation
          End Site
          {
            OFFSET -1.1221 -3.69964 12.103
          }
        }
      }
    }
  }
  JOINT lButtock
  {
    OFFSET 8.77824 4.35084 1.2192
    CHANNELS 3 Zrotation Xrotation Yrotation
    JOINT lThigh
    {
      OFFSET 0 -1.70687 -2.19456
      CHANNELS 3 Zrotation Xrotation Yrotation
      JOINT lShin
      {
        OFFSET 0 -36.8199 0.73152
        CHANNELS 3 Zrotation Xrotation Yrotation
        JOINT lFoot
        {
          OFFSET -0.73152 -45.1104 -5.12064
          CHANNELS 3 Zrotation Xrotation Yrotation
          End Site
          {
            OFFSET 1.1221 -3.69964 12.103
          }
        }
      }
    }
  }
}
MOTION
Frames:	6
Frame Time:	0.00833333
166.725 84.7658 33.0806 0.0 0.0 0.0 -0.385198 -0.00168812 -0.0109959 -0.106234 -0.0025671 -0.018405 -1.21756e-16 -7.95139e-16 8.69683e-17 -4.22417e-16 3.18055e-15 2.64011e-16 -0.0 0.0 0.0 -0.0 0.0 0.0 -5.10255e-17 -3.88251e-19 2.48481e-16 3.68256e-16 4.34841e-17 1.78906e-15 -2.62396e-14 8.74653e-15 2.8625e-14 -3.01208e-13 -4.00054e-15 1.65389e-13 -7.11222e-13 8.74109e-15 4.45278e-13 -1.23604e-12 1.59028e-14 7.61743e-13 -7.04095e-13 1.19271e-14 4.35736e-13 7.73091 5.47488 0.417314 -7.10258e-13 9.0447e-15 4.48458e-13 2.90554 0.965183 0.102902 -7.02679e-13 9.34288e-15 4.44483e-13 10.2786 0.731801 0.0259123 -7.13438e-13 7.95139e-15 4.51639e-13 2.22167 -0.733487 -0.20892 -1.47761e-16 -1.16475e-18 -1.49089e-16 -3.55289e-15 -1.49089e-16 1.98785e-16 -2.58917e-14 -8.34896e-15 9.54166e-15 -3.00556e-13 1.31695e-15 2.06736e-13 -7.0606e-13 -1.5009e-14 4.45278e-13 -1.20106e-12 -2.8625e-14 7.78441e-13 -7.11649e-13 -1.19271e-14 4.54819e-13 -7.73091 5.47488 -0.417314 -7.05785e-13 -1.48095e-14 4.45278e-13 -2.90554 0.965183 -0.102902 -7.11425e-13 -1.49089e-14 4.46868e-13 -10.2786 0.731801 -0.0259123 -7.02704e-13 -1.35174e-14 4.45278e-13 -2.22167 -0.733487 0.20892 -2.03217e-16 0.0 -3.88251e-19 0.221677 -2.58356 -0.0280815 -0.00748978 -0.872635 -0.0651418 -0.513139 3.45577 0.129351 2.03217e-16 0.0 3.88251e-19 -0.807748 -4.07085 0.0653904 0.00325556 1.82139 0.0244302 0.517683 2.24911 -0.105176
162.681 83.0077 26.7996 -75.1933 -88.0774 83.3675 1.81334 -0.812315 -1.21782 1.22718 -0.435863 -0.375833 -1.3444 0.460963 -0.947259 2.01058 -4.45417 -1.26456 -0.0 0.0 0.0 -0.0 0.0 0.0 2.38675e-14 9.71914e-14 -3.47586e-14 21.0782 -3.37007 1.05861 -1.78729 -0.597846 2.98083 0.194932 9.82113 1.30818 1.01599e-09 6.09316e-10 -1.36442e-09 1.71324e-09 1.05624e-09 -2.38005e-09 1.016e-09 6.09318e-10 -1.36443e-09 7.73091 5.47488 0.417314 1.01599e-09 6.09315e-10 -1.36442e-09 2.90554 0.965183 0.102902 1.016e-09 6.09316e-10 -1.36442e-09 10.2786 0.731801 0.0259123 1.01599e-09 6.09316e-10 -1.36441e-09 2.22167 -0.733487 -0.20892 2.37726e-14 9.7186e-14 -3.51142e-14 -23.5472 10.287 -2.28386 4.01084 -1.78092 -6.31087 -0.0885587 6.67727 -0.916502 -9.14517e-10 4.13207e-10 6.43498e-11 -1.57804e-09 7.11959e-10 1.29743e-10 -9.14523e-10 4.13207e-10 6.43585e-11 -7.73091 5.47488 -0.417314 -9.14518e-10 4.13205e-10 6.4348e-11 -2.90554 0.965183 -0.102902 -9.14523e-10 4.13205e-10 6.435e-11 -10.2786 0.731801 -0.0259123 -9.14514e-10 4.13207e-10 6.4346e-11 -2.22167 -0.733487 0.20892 -2.03217e-16 0.0 -3.88251e-19 0.283425 -10.9305 0.45431 -0.0250098 4.87928 -0.0264839 -0.509255 4.50976 -3.02019 2.03217e-16 0.0 3.88251e-19 0.396498 -4.03807 -1.47705 -0.0103519 9.87863 -0.118588 0.470374 1.84042 -1.45893
161.877 83.1452 26.5941 -74.3508 -87.8388 82.5348 4.07382 -1.66507 -2.49483 2.63303 -0.894734 -0.753503 -2.74955 0.945572 -1.94766 3.92288 -9.16124 -2.62353 -0.0 0.0 0.0 -0.0 0.0 0.0 5.09923e-14 1.99939e-13 -7.32087e-14 43.5122 -6.91238 2.23159 -3.60602 -1.22307 6.12777 -0.115621 20.1939 2.82642 2.12323e-09 1.26331e-09 -2.83271e-09 3.58091e-09 2.1901e-09 -4.94156e-09 2.12324e-09 1.26331e-09 -2.83271e-09 7.73091 5.47488 0.417314 2.12324e-09 1.2633e-09 -2.83271e-09 2.90554 0.965183 0.102902 2.12324e-09 1.2633e-09 -2.83271e-09 10.2786 0.731801 0.0259123 2.12323e-09 1.26331e-09 -2.8327e-09 2.22167 -0.733487 -0.20892 5.09007e-14 1.99928e-13 -7.35193e-14 -47.4771 21.1772 -4.99656 7.86043 -3.61329 -13.0565 0.0567166 13.6176 -1.91257 -1.89824e-09 8.60333e-10 1.57116e-10 -3.27482e-09 1.48227e-09 3.09797e-10 -1.89825e-09 8.60329e-10 1.57124e-10 -7.73091 5.47488 -0.417314 -1.89824e-09 8.60329e-10 1.57112e-10 -2.90554 0.965183 -0.102902 -1.89825e-09 8.60329e-10 1.57114e-10 -10.2786 0.731801 -0.0259123 -1.89824e-09 8.60332e-10 1.57108e-10 -2.22167 -0.733487 0.20892 -2.03217e-16 0.0 -3.88251e-19 0.477165 -19.7894 0.999018 -0.0520322 10.966 0.0156219 -0.376936 5.63004 -6.35237 2.03217e-16 0.0 3.88251e-19 1.62943 -3.94199 -3.1317 0.0203693 18.2972 -0.279771 0.396071 1.29411 -2.87023
161.066 83.2818 26.3675 -72.184 -87.6294 80.3604 6.10797 -2.42923 -3.63437 3.8778 -1.30225 -1.09094 -3.98748 1.38138 -2.84251 5.42847 -13.3361 -3.88718 -0.0 0.0 0.0 -0.0 0.0 0.0 7.17045e-14 2.91575e-13 -1.04773e-13 63.613 -10.0963 3.22027 -5.17603 -1.77413 8.94633 -0.928215 29.3972 4.4396 3.04939e-09 1.82793e-09 -4.09415e-09 5.14219e-09 3.1687e-09 -7.14167e-09 3.04941e-09 1.82793e-09 -4.09415e-09 7.73091 5.47488 0.417314 3.0494e-09 1.82793e-09 -4.09416e-09 2.90554 0.965183 0.102902 3.04941e-09 1.82793e-09 -4.09415e-09 10.2786 0.731801 0.0259123 3.04939e-09 1.82793e-09 -4.09414e-09 2.22167 -0.733487 -0.20892 7.16132e-14 2.9156e-13 -1.05044e-13 -67.8495 30.6485 -7.84238 10.8755 -5.08401 -19.001 0.409921 20.0106 -2.90646 -2.74214e-09 1.23965e-09 1.92159e-10 -4.7317e-09 2.13593e-09 3.87672e-10 -2.74214e-09 1.23964e-09 1.92166e-10 -7.73091 5.47488 -0.417314 -2.74214e-09 1.23964e-09 1.92154e-10 -2.90554 0.965183 -0.102902 -2.74215e-09 1.23965e-09 1.92156e-10 -10.2786 0.731801 -0.0259123 -2.74214e-09 1.23965e-09 1.92148e-10 -2.22167 -0.733487 0.20892 -2.03217e-16 0.0 -3.88251e-19 0.875549 -27.6164 1.57363 -0.0838166 16.3831 0.0532675 -0.154053 6.54902 -9.3523 2.03217e-16 0.0 3.88251e-19 2.81038 -3.96395 -4.56154 0.094547 25.9925 -0.444262 0.317844 1.02212 -4.165
160.306 83.375 26.1597 -69.3665 -87.3588 77.5521 7.64807 -2.97598 -4.42752 4.73139 -1.58156 -1.32755 -4.83916 1.69658 -3.47282 6.34651 -16.2054 -4.82359 -0.0 0.0 0.0 -0.0 0.0 0.0 7.63851e-14 3.55436e-13 -1.19122e-13 77.5908 -12.3997 3.70285 -6.25382 -2.15802 10.9404 -1.87291 35.7398 5.80464 3.52287e-09 2.16914e-09 -4.83847e-09 5.9375e-09 3.75912e-09 -8.43829e-09 3.52288e-09 2.16914e-09 -4.83848e-09 7.73091 5.47488 0.417314 3.52287e-09 2.16914e-09 -4.83848e-09 2.90554 0.965183 0.102902 3.52288e-09 2.16914e-09 -4.83848e-09 10.2786 0.731801 0.0259123 3.52286e-09 2.16915e-09 -4.83847e-09 2.22167 -0.733487 -0.20892 7.62867e-14 3.55417e-13 -1.1937e-13 -81.5312 36.7933 -10.0133 12.6487 -5.91415 -22.8727 0.837154 25.0528 -3.76665 -3.23646e-09 1.44945e-09 8.28948e-11 -5.58884e-09 2.49795e-09 2.10098e-10 -3.23647e-09 1.44944e-09 8.29012e-11 -7.73091 5.47488 -0.417314 -3.23647e-09 1.44944e-09 8.28884e-11 -2.90554 0.965183 -0.102902 -3.23647e-09 1.44944e-09 8.28916e-11 -10.2786 0.731801 -0.0259123 -3.23646e-09 1.44945e-09 8.28821e-11 -2.22167 -0.733487 0.20892 -2.03217e-16 0.0 -3.88251e-19 1.44748 -32.8703 2.08309 -0.109736 20.126 0.0766622 0.037317 7.02431 -11.4932 2.03217e-16 0.0 3.88251e-19 3.84331 -4.28631 -5.43074 0.1854 31.8804 -0.583265 0.2967 1.43396 -5.16963
159.534 83.4753 25.9431 -67.6596 -87.0815 75.8362 8.51215 -3.23597 -4.73482 5.0485 -1.68209 -1.42321 -5.16147 1.84804 -3.72985 6.6365 -17.2579 -5.23484 -0.0 0.0 0.0 -0.0 0.0 0.0 5.47106e-14 3.86375e-13 -1.06705e-13 82.8729 -13.6119 3.42501 -6.68744 -2.31479 11.7562 -2.35504 38.2467 6.42608 3.2903e-09 2.18232e-09 -4.81263e-09 5.53668e-09 3.77897e-09 -8.38875e-09 3.29032e-09 2.18232e-09 -4.81263e-09 7.73091 5.47488 0.417314 3.29031e-09 2.18232e-09 -4.81263e-09 2.90554 0.965183 0.102902 3.29032e-09 2.18232e-09 -4.81263e-09 10.2786 0.731801 0.0259123 3.2903e-09 2.18233e-09 -4.81262e-09 2.22167 -0.733487 -0.20892 5.45889e-14 3.86356e-13 -1.06953e-13 -87.1339 38.5436 -10.3845 13.0201 -6.01372 -23.793 1.14826 28.1745 -4.33762 -3.1888e-09 1.39477e-09 -3.09916e-10 -5.51812e-09 2.40532e-09 -4.67254e-10 -3.18881e-09 1.39476e-09 -3.09911e-10 -7.73091 5.47488 -0.417314 -3.18881e-09 1.39476e-09 -3.09923e-10 -2.90554 0.965183 -0.102902 -3.18881e-09 1.39476e-09 -3.0992e-10 -10.2786 0.731801 -0.0259123 -3.1888e-09 1.39477e-09 -3.09928e-10 -2.22167 -0.733487 0.20892 -2.03217e-16 0.0 -3.88251e-19 2.0541 -34.5291 2.39149 -0.119139 21.5204 0.0769634 0.0724138 6.91284 -12.4178 2.03217e-16 0.0 3.88251e-19 4.66223 -5.02835 -5.50896 0.249514 35.2314 -0.658146 0.394612 2.85651 -5.79424
